<svg xmlns="http://www.w3.org/2000/svg" width="1080" height="1080" viewBox="0 0 1080 1080">
  <defs><linearGradient id="bg" x1="0" y1="0" x2="0" y2="1"><stop offset="0%" stop-color="#0B1F3B"/><stop offset="100%" stop-color="#102A56"/></linearGradient></defs>
  <rect width="1080" height="1080" rx="32" fill="url(#bg)"/>
  <text x="540" y="80" text-anchor="middle" font-family="'Pretendard',sans-serif" font-size="36" font-weight="800" fill="#F59E0B">서울시 지원사업 신청 전 체크리스트</text>
  <rect x="60" y="110" width="960" height="6" rx="3" fill="#F59E0B"/>

  <rect x="60" y="140" width="960" height="90" rx="16" fill="rgba(255,255,255,0.06)"/>
  <text x="100" y="186" font-family="'Pretendard',sans-serif" font-size="34" fill="#22C55E">☑</text>
  <text x="150" y="180" font-family="'Pretendard',sans-serif" font-size="24" font-weight="700" fill="#FFF">사업장 소재지 서울 확인</text>
  <text x="150" y="212" font-family="'Pretendard',sans-serif" font-size="19" fill="#EAF2FF">사업자등록증 주소가 서울특별시여야 신청 가능</text>

  <rect x="60" y="240" width="960" height="90" rx="16" fill="rgba(255,255,255,0.04)"/>
  <text x="100" y="286" font-family="'Pretendard',sans-serif" font-size="34" fill="#22C55E">☑</text>
  <text x="150" y="280" font-family="'Pretendard',sans-serif" font-size="24" font-weight="700" fill="#FFF">소상공인 요건 확인</text>
  <text x="150" y="312" font-family="'Pretendard',sans-serif" font-size="19" fill="#EAF2FF">상시근로자 5인 미만(제조·건설·운수·광업 10인 미만)</text>

  <rect x="60" y="340" width="960" height="90" rx="16" fill="rgba(255,255,255,0.06)"/>
  <text x="100" y="386" font-family="'Pretendard',sans-serif" font-size="34" fill="#22C55E">☑</text>
  <text x="150" y="380" font-family="'Pretendard',sans-serif" font-size="24" font-weight="700" fill="#FFF">제외 업종 해당 여부 확인</text>
  <text x="150" y="412" font-family="'Pretendard',sans-serif" font-size="19" fill="#EAF2FF">유흥업·부동산임대·금융보험 등 제외</text>

  <rect x="60" y="440" width="960" height="90" rx="16" fill="rgba(255,255,255,0.04)"/>
  <text x="100" y="486" font-family="'Pretendard',sans-serif" font-size="34" fill="#22C55E">☑</text>
  <text x="150" y="480" font-family="'Pretendard',sans-serif" font-size="24" font-weight="700" fill="#FFF">국세·지방세 체납 없음 확인</text>
  <text x="150" y="512" font-family="'Pretendard',sans-serif" font-size="19" fill="#EAF2FF">납세증명서 미리 발급 (홈택스·위택스)</text>

  <rect x="60" y="540" width="960" height="90" rx="16" fill="rgba(255,255,255,0.06)"/>
  <text x="100" y="586" font-family="'Pretendard',sans-serif" font-size="34" fill="#22C55E">☑</text>
  <text x="150" y="580" font-family="'Pretendard',sans-serif" font-size="24" font-weight="700" fill="#FFF">사업자등록증·신분증·통장사본 준비</text>
  <text x="150" y="612" font-family="'Pretendard',sans-serif" font-size="19" fill="#EAF2FF">스캔본 미리 저장 — 온라인 접수 시 업로드 필요</text>

  <rect x="60" y="640" width="960" height="90" rx="16" fill="rgba(255,255,255,0.04)"/>
  <text x="100" y="686" font-family="'Pretendard',sans-serif" font-size="34" fill="#22C55E">☑</text>
  <text x="150" y="680" font-family="'Pretendard',sans-serif" font-size="24" font-weight="700" fill="#FFF">과거 수혜 이력 확인</text>
  <text x="150" y="712" font-family="'Pretendard',sans-serif" font-size="19" fill="#EAF2FF">동일 사업 중복 수혜 제한 — 이전 신청 내역 조회</text>

  <rect x="60" y="740" width="960" height="90" rx="16" fill="rgba(255,255,255,0.06)"/>
  <text x="100" y="786" font-family="'Pretendard',sans-serif" font-size="34" fill="#22C55E">☑</text>
  <text x="150" y="780" font-family="'Pretendard',sans-serif" font-size="24" font-weight="700" fill="#FFF">사업계획서 작성 (종합지원)</text>
  <text x="150" y="812" font-family="'Pretendard',sans-serif" font-size="19" fill="#EAF2FF">구체적 매출 목표·실행 계획·예산 편성 포함</text>

  <rect x="60" y="840" width="960" height="90" rx="16" fill="rgba(255,255,255,0.04)"/>
  <text x="100" y="886" font-family="'Pretendard',sans-serif" font-size="34" fill="#22C55E">☑</text>
  <text x="150" y="880" font-family="'Pretendard',sans-serif" font-size="24" font-weight="700" fill="#FFF">금융지원 서류 준비 (융자 신청 시)</text>
  <text x="150" y="912" font-family="'Pretendard',sans-serif" font-size="19" fill="#EAF2FF">부가세 과세표준증명원·매출 증빙·재무제표</text>

  <rect x="60" y="945" width="960" height="90" rx="16" fill="rgba(59,130,246,0.15)"/>
  <text x="100" y="991" font-family="'Pretendard',sans-serif" font-size="34" fill="#3B82F6">🔗</text>
  <text x="150" y="990" font-family="'Pretendard',sans-serif" font-size="28" font-weight="800" fill="#3B82F6">서울시 소상공인 종합지원 포털 접속 확인!</text>
</svg>